<?xml version="1.0" encoding="utf-8"?>
<!-- Generator: Adobe Illustrator 23.0.0, SVG Export Plug-In . SVG Version: 6.00 Build 0)  -->
<svg version="1.1" id="Layer_1" xmlns="http://www.w3.org/2000/svg" xmlns:xlink="http://www.w3.org/1999/xlink" x="0px" y="0px"
	 viewBox="0 0 253.99 179.15" style="enable-background:new 0 0 253.99 179.15;" xml:space="preserve">
<g>
	<path d="M116.11,26.77c-0.44-3.42,0.62-5.71,1.63-8.05c1.51-3.54,3.11-7.04,4.32-10.71c0.52-1.58,1.79-2.93,2.78-4.34
		c0.45-0.65,1.3-1.01,1.17-2.03c-0.1-0.81-0.13-1.86,1.12-1.6c0.95,0.19,1.92,0.92,1.81,1.97c-0.18,1.73,0.83,3.63-0.64,5.23
		c-0.27,0.3-0.34,0.91-0.28,1.36c0.32,2.62-0.15,5.19-1.07,7.57c-1.43,3.67-0.31,7.94-2.86,11.32c-0.32,0.43-0.21,1.33-0.06,1.94
		c0.63,2.52-1.2,4.67-1.01,7.09c0.19,2.48-0.92,4.56-1.73,6.78c-0.43,1.17-0.46,2.64-0.21,3.87c0.31,1.51-1.13,2.17-1.17,3.6
		c-0.09,2.95-0.54,5.93-1.82,8.7c-0.26,0.55-0.16,1.32-0.05,1.97c0.43,2.66-0.62,5.04-1.49,7.4c-0.29,0.8-0.15,0.97,0.24,1.46
		c0.54,0.68,0.85,0.2,1.45,0.08c2.51-0.5,3.43-1.82,3.88-4.33c0.57-3.16,1.9-6.19,2.89-9.27c0.16-0.51,0.38-0.81,1.01-0.8
		c0.99,0.01,0.85,0.68,1.02,1.31c0.57,2.2-0.4,4.36-1.22,5.99c-1.01,2.02-0.44,3.7-0.95,5.83c3.16-1.86,6.29-2.42,9.19-2.95
		c4.8-0.87,9.41-2.44,14.19-3.34c1.51-0.28,3.03-0.75,4.62-0.83c0.63-0.03,1.69,0.03,1.83-0.27c1.14-2.54,3.8-1.4,5.61-2.3
		c1.56-0.77,3.49-1.22,5.38-1.54c3.33-0.56,6.43-2.15,9.73-3.05c1.19-0.33,2.36-0.81,3.63-0.82c2.44-0.02,4.88-0.54,6.53-2.23
		c1.48-1.52,3.45-0.04,4.95-1.59c1.09-1.12,3.34-0.88,4.87-1.4c1.53-0.52,2.66-2.1,4.75-1.89c0.9,0.09,1.97-0.81,2.85-1.43
		c1.41-0.99,3.3-1.08,4.49-2.45c1.92,2.11,2.22-1.48,3.75-1.05c2.1,0.59,2.55-2.26,4.54-2.38c0.58-0.04,1.52-0.33,2.19-0.64
		c2.38-1.1,5.07-1.41,7.13-3.4c1.27-1.23,3.16-2.03,4.92-2.49c3.74-0.99,6.57-3.5,9.78-5.37c0.82-0.48,1.16-1.5,2.29-1.73
		c4.46-0.91,6.86-4.62,9.94-7.47c-0.97-0.93-1.93-1.84-2.99-2.86c0.31-0.37,0.58-0.69,0.84-1.02c0.45-0.59,1.08-0.89,1.7-0.52
		c2.79,1.68,3.28,4.23,0.92,6.83c-3.06,3.37-6.08,7.03-10.28,8.92c-2.02,0.91-4,2.06-5.59,3.28c-7.51,5.73-16.35,8.88-24.56,13.24
		c-1.74,0.93-3.97,0.95-5.7,1.88c-2.33,1.25-4.46,2.64-7.18,3.26c-2.47,0.56-4.6,2.58-7.22,2.99c-2.67,0.41-4.98,1.82-7.38,2.73
		c-3.61,1.38-7.23,2.7-10.94,3.72c-3.59,0.99-6.96,2.56-10.71,3.23c-3.25,0.58-6.39,2.2-9.68,3.09c-2.39,0.65-4.77,1.35-7.12,2.12
		c-2.24,0.74-4.63,1.12-6.75,1.85c-1.91,0.66-3.95,0.43-5.88,1.52c-2.35,1.33-5.31,1.69-8.06,2.17c-1.35,0.24-2.34,0.88-2.37,1.99
		c-0.1,3.85-1.84,7.32-2.27,11.14c-0.39,3.37-0.8,6.72-0.76,10.11c0.02,1.65-1.07,2.88-1.16,4.58c-0.16,2.68-0.69,5.37-1,8.08
		c-0.3,2.69-0.45,5.47-1.01,8.07c-0.88,4.05-1.47,8.12-1.78,12.21c-0.32,4.31-0.08,8.66-0.05,12.99c0,0.28,0.26,0.55,0.43,0.87
		c0.35-0.32,0.89-0.58,1.01-0.96c0.9-2.97,2.33-5.95,2.36-8.95c0.03-2.67,0.65-5.19,1.37-7.53c0.69-2.26,0.12-4.78,1.57-6.83
		c0.25-0.35,0.25-0.93,0.23-1.39c-0.16-3.08,0.21-6.01,1.85-8.75c0.44-0.74,0.14-1.93,0.16-2.92c0.04-1.59-0.28-3.26,1-4.58
		c-1.6-1.22,0.12-2.44,0.04-3.67c-0.09-1.38,1.89-2.74,0-4.21c-0.24-0.19-0.22-1.08,0.01-1.43c0.54-0.81,1.67-1.42,1.8-2.23
		c0.1-0.61-1.22-1.14-0.53-2.43c0.76-1.43,2.93-2.93,0.69-4.87c1.01-1.51,0.85-3.32,1.33-4.96c0.12-0.42,0.67-1.27,1.33-1.01
		c0.55,0.22,1.29,0.93,1.27,1.4c-0.08,2.44,0.57,4.93-0.39,7.31c-0.17,0.43-0.55,0.86-0.52,1.27c0.37,4.42-1.8,8.66-1,13.08
		c0.46,2.53-0.82,4.74-1.24,7.05c-0.49,2.71-1.08,5.53-1.61,8.24c-0.55,2.77-1.93,5.56-1.18,8.55c-1.8,2.61-0.34,5.9-3.06,9.02
		c3.63-0.94,3.81-3.38,5.14-4.79c1.28-1.36,3.48-2.26,2.92-4.77c3.26-1.51,3.78-6.41,8.13-6.59c1.38-2.11,3.73-2.82,5.75-4.01
		c2.28-1.35,4.56-2.7,6.77-4.17c2.08-1.38,5.01-1.15,6.55-3.52c5.96-1.73,11.15-5.24,16.96-7.32c3.48-1.24,7.29-2.09,10.24-4.13
		c3.46-2.39,7.83-2.19,11.05-4.8c1.98,2.26,2.19-1.29,3.74-1.16c1.46,0.12,3.15-0.41,4.47-1.13c3.76-2.05,7.88-2.78,11.96-3.72
		c0.68-0.16,1.13-0.45,1.68-0.79c1.82-1.12,4.04-0.86,5.92-1.43c2.1-0.63,3.93-1.29,5.86-0.16c0.75,0.44,0.78-0.14,1.08-0.34
		c0.66-0.42,0.94-1.43,1.95-1.32c2.45,0.28,4.57-1.73,7.09-1.01c0.51,0.15,0.82,0.37,0.82,1c0,0.63-0.29,0.92-0.81,1
		c-1.71,0.24-3.68-0.68-4.99,1.26c-0.96,1.43-3.2,0.29-4.18,2.09c-0.47,0.86-1.98,0.41-2.86,0.5c-3.99,0.42-7.49,1.98-11.1,3.49
		c-3.55,1.48-7.32,2.45-10.97,3.68c-3.22,1.08-6.83,1.17-9.42,3.81c-3.23-0.69-5.22,3.11-8.62,2.3c-0.99-0.24-2.14,1.36-3.56,0.89
		c-2.85,3.51-7.6,3.5-11.09,5.88c-0.59,0.4-1.49,1.37-2.5,1.1c-2.21-0.59-3.34,0.91-4.6,2.21c-0.46,0.48-0.95,0.73-1.66,0.86
		c-2.16,0.4-4,1.58-5.89,2.66c-3.22,1.84-6.27,4-9.94,4.97c-2.81,0.74-4.08,4.08-7.2,4.33c-1.52,2.2-5.23,2.16-5.64,5.5
		c-3.32,0.97-3.96,4.17-5.67,6.54c-1.02,1.41-1.55,3.18-3.08,4.27c-1.32,0.94-2.24,2.26-2.88,3.79c-0.16,0.39-0.68,0.79-1.1,0.88
		c-1.74,0.38-2.12,1.45-2.36,3.12c-0.26,1.78-1.16,3.5-1.94,5.17c-0.48,1.02-1.21,1.72-2.62,1.81c-1.69,0.11-1.09-1.31-1.66-1.89
		c-0.33-0.34-0.78-0.58-0.71-1.21c0.11-0.98-0.69-1.13-1.29-0.93c-1.22,0.41-0.09,0.81,0.08,1.26c0.35,0.92,0.27,1.74-0.21,2.73
		c-1.19,2.45-1.77,5.06-1.59,7.85c0.11,1.73-0.01,3.39-0.83,5.14c-0.68,1.45-0.38,3.32-1.03,5.06c-1.77,4.76-1.86,5.29-6.03,9.08
		c-3.55-1.95-4.18-5.61-5.03-9.06c-0.27-1.1,0.44-2.83-0.14-3.39c-1.28-1.22,0.35-1.99,0.05-2.75c-0.83-2.11-0.03-4.14-0.06-6.19
		c-0.06-3.61,1.85-6.96,1.11-10.58c1.32-1.56,0.61-3.11,0-4.67c2.07-1.04,0.48-3.27,1.6-4.88c0.87-1.25-0.29-3.86,0.53-5.21
		c1.78-2.97,0.2-6.26,1.7-9.33c1.24-2.54,0.81-5.85,2.13-8.61c0.26-0.54,0.09-1.32,0.04-1.98c-0.17-2.12,0.06-4.16,1.01-6.08
		c1.27-2.58,1.31-5.46,1.9-8.19c1.23-5.7,2.58-11.4,3.06-17.24c0.08-1.01,1.71-1.32,0.77-2.88c-1.52,1.28-3.39,0.78-5.51,0.92
		c-0.44,4.62-2.45,9.05-2.23,13.88c-1.73,2.52-1.03,5.39-0.91,8.08c0.1,2.34-1.44,4.2-1.19,6.6c0.21,1.98,0.86,4.25-0.86,6.11
		c-0.25,0.27-0.04,0.97-0.03,1.47c0.13,5.65-1.38,11.11-2.09,16.66c-0.51,3.98-2.41,7.68-3.12,11.71c-0.35,1.99-2.12,3.78-3.42,5.54
		c-1.08,1.47-3.13,1.33-4.05-0.32c-0.9-1.6-1.97-3.37-2.05-5.1c-0.13-2.91-1.4-5.57-1.32-8.51c0.15-5.33,0.01-10.66,0.06-15.99
		c0.02-2.07-0.3-4.12,0.89-6.14c0.56-0.96,0.1-2.53,0.1-4.46c-2.58,2.38-3.54,5.09-4.87,7.4c-1.58,2.74-4.12,4.08-6.42,5.65
		c-2.09,1.43-4.69,0.4-6.66-1.09c-2.6-1.98-4.09-4.79-5.05-7.88c-1.39-4.46-1.36-7.95-0.02-14.17c0.17-0.8,0.15-1.68,0-2.49
		c-0.31-1.65,0.93-2.36,1.84-3.25c1.13-1.1,2.71-1.05,4.12-1.17c0.38-0.03,1.14,0.64,1.75,0.45c3.06-0.98,3.49,2.03,5.04,3.31
		c0.25,0.21,0.27,0.92,0.13,1.31c-0.2,0.58-0.84,0.32-1.3,0.42c-0.98,0.2-1.68-0.33-2.05-1.05c-0.84-1.65-2.77-0.44-3.89-1.67
		c-0.51-0.56-3.64,2.46-3.57,3.87c0.1,2.3-1.21,4.61-0.82,6.54c0.4,2.01,0.19,4.46,1.77,6.22c-0.28,4.02,2.65,5.58,5.54,7.1
		c2.99,1.57,4.19,1.52,5.76-0.92c2-3.12,4.67-5.67,6.78-8.67c0.36-0.52,0.96-0.82,0.93-1.62c-0.15-3.38,2.07-6.28,2-9.67
		c-0.04-1.7,1.32-1.14,2.14-1.1c1.31,0.06,1.06,1.42,0.79,1.87c-1.59,2.6-0.68,5.42-0.94,8.12c-0.29,3.03,0.79,6.22-1,9.08
		c1.04,1.89-0.07,3.78-0.02,5.67c0.07,2.16,0.02,4.33,0.02,6.5c0,2.17-0.02,4.33,0.01,6.5c0.02,1.23,2.21,2.44,0.02,3.68
		c1.51,1.07,0.98,2.67,0.93,4.07c-0.05,1.44,1.59,2.02,1.4,4.3c1.98-5.1,3.59-9.41,4.62-13.89c1.35-5.85,2.4-11.75,3.15-17.73
		c0.38-3.02,1.37-6.07,2.34-9c0.35-1.05-1.21-2.18,0.37-2.87c-1.55-1.16,0.44-2.05,0.27-3.25c-0.27-1.9-0.87-4.24,0.28-5.78
		c1.19-1.58-0.09-3.45,1.46-5.02c0.83-0.85,0.19-3.19,0.13-4.85c-0.04-1.14,0.02-2.2,0.98-3.07c-1.86-0.94-3.35,0-5.02,0.57
		c-1.5,0.51-3.36-0.46-4.78,0.5c-0.79,0.53-1.5,0.65-2.28,0.55c-3.62-0.49-6.97,1.7-10.58,1c-1.22-0.24-1.98,2.19-3.37,0.47
		c-1.28-1.58-1.88,0.59-2.9,0.56c-1.33-0.04-2.77-0.34-3.98,0.05c-3.82,1.23-7.81,0.39-11.57,1.11c-2.73,0.52-5.39,0.78-8.12,0.83
		c-1.69,0.03-3.15,1.27-3.36,3c-0.12,0.99-0.02,2-0.02,3c0,6,0,12,0,18c0,0.83,0.13,1.69-0.03,2.49c-0.26,1.25-2.08,1.68-3.09,0.92
		c-1.46-1.1-2.71-2.62-3.66-3.95c-2.29-3.22-4.89-5.87-8.19-8.01c-1.37-0.89-2.33-2.38-3.58-3.47c-3.35-2.94-6.56-6-10.65-8.05
		c-2.24-1.12-4.04-3.12-6.07-4.67c-1-0.76-2.24-2.18-3.08-1.99c-2.96,0.65-4.41-2.6-7.16-2.38C1.02,80.9-0.6,79.83,0.23,78.2
		c0.87-1.7,1.86-2.71,3.01-2.17c2.45,1.17,5.13,1.42,7.63,2.16c2.79,0.83,5.55,0.16,8.12,0.89c3.86,1.1,7.78,0.47,11.58,1.07
		c1.85,0.29,3.7,0.98,5.61,0.8c2.24-0.2,4.34-2.02,6.75-0.06c0.67,0.55,1.7-0.79,2.02-1.66c0.26-0.74-0.02-1.66,0.07-2.48
		c0.49-4.37-1.06-8.87,0.86-13.14c-2.31-2.91,0.96-5.61,0.27-8.65c-0.65-2.85-0.12-5.97-0.14-8.97c-0.05-5.55,1.12-11,1.22-16.58
		c0.06-3.65,1.31-7.42,1.79-11.17c0.21-1.61,1.62-2.2,3.39-4.2c-0.9,3.56,0.66,6.18-1.36,8.53c-0.16,0.19-0.05,0.65-0.02,0.98
		c0.69,6.08-1.59,12-1.01,18.08c0.26,2.76-1.42,5.24-1.06,8.09c0.33,2.63,0.61,5.46-0.03,7.96c-1.89,7.34-0.23,14.69-1,21.81
		c0.97,0.64,1.09-0.37,1.37-0.27c1.91,0.65,3.74-0.45,5.59-0.23c3.76,0.45,4.4,0.42,8.37-0.74c0.6-0.18,1.6-0.49,1.83-0.23
		c1.74,1.99,3.89-0.1,5.7,0.69c1.53-1.91,4.35,0.5,5.78-1.73c1.72,0.91,3.25-2.35,5.26-0.08c0.96,1.09,2.24-1.06,3.49-0.89
		c3.46,0.47,6.61-1.33,10.09-1.2c1.91,0.07,3.95-1.08,6.08-0.84c0.44-1.3,3.15-0.5,2.56-2.85c-0.29-1.16,1.06-1.33,1.4-2.28
		c1.03,1.34,0.21,2.55,0.89,3.99c0.63,0.64,0.79-1.07,1.58-0.89c0.63,0.15,1.33,0.07,1.99,0.02c2.29-0.16,2.63-0.57,3.12-2.76
		c1.38-6.1,2.76-12.21,4.12-18.31c1-4.49,1.15-9.32,3.78-13.42c0.38-0.59,0.24-1.66,0.06-2.45c-0.68-3,0.61-5.82,1.26-8.53
		c0.61-2.55,1-5.19,1.71-7.74c1.1-3.91,0.91-8.13,2.71-11.88c0.18-0.37,0.45-0.52,0.02-0.71c-0.28-0.12-0.73-0.29-0.9-0.16
		c-0.64,0.47-1.54,0.96-1.72,1.61c-1.14,4.21-3.61,7.89-4.89,11.96C118.4,22,117.26,23.97,116.11,26.77z M100.99,162.51
		c0,3.31,0.01,5.81-0.01,8.3c0,0.54,0.12,1.05,0.63,1.15c0.63,0.13,1.13,0.02,1.43-0.86c0.94-2.77,1.45-5.7,2.95-8.27
		c0.07-0.12-0.02-0.33,0.01-0.49c0.77-4.2,1.15-8.46,1.88-12.68c0.21-1.19,1.23-1.81,1.16-3.06c-0.26-4.83,0.83-9.49,1.94-14.16
		c0.44-1.85-0.18-3.75,0.61-5.74c0.61-1.56,1.45-3.5,0.62-5.41c2.39-0.83-1.02-2.56,0.69-3.97c1.11-0.92,1.42-3.08,1.16-4.95
		c-0.19-1.29-0.34-2.76,0.1-3.94c1.34-3.64,1.8-7.36,1.93-11.21c0.09-2.67,0.08-5.7,1.32-7.89c2.17-3.83,0.75-8.19,2.58-11.94
		c0.26-0.53,0.09-1.54-0.82-1.36c-1.35,0.26-3.2,0.46-3.8,1.37c-0.57,0.87-1.77,1.91-1.36,3.4c0.78,2.81-1.04,5.33-1,8.07
		c0.02,1.12-1.46,1.76-1,3.09c0.74,2.18-0.57,4.1-1.08,6.05c-0.87,3.37-1.94,6.66-1.92,10.18c0.01,0.81,0.17,1.76-0.18,2.41
		c-1.99,3.71-1.43,7.98-2.72,11.85c-0.58,1.73-0.23,3.69-0.95,5.6c-0.69,1.83-0.58,4.01-0.98,6.06c-0.86,4.33-1.65,8.78-1.96,13.14
		C101.81,152.62,100.04,157.89,100.99,162.51z M16.02,85.01c10.16,7.4,18.49,15.29,27,22.98c0.09,0.08,0.32,0.01,0.91,0.01
		c0.27-3.28-0.4-6.73,1.01-9.91c0.29-0.65-0.11-1.46-0.5-2.26c-0.86-1.77-0.91-3.92-0.03-5.62c0.78-1.5,0.49-2.73,0.39-4.22
		c-2.52,0-4.85,0.12-7.15-0.03c-2.25-0.15-4.52-0.11-6.77-0.33c-2.15-0.21-4.8,0.94-6.83,0.2C21.79,85,19.67,85.07,16.02,85.01z"/>
	<path d="M115.94,25.26c0.16,3.31-0.15,5.64-1.57,8.05c-1.49,2.53-1.67,5.81-2.13,8.66c-0.55,3.46-2.19,6.52-2.49,10.3
		c-0.91-1.2-2.07-1.43-1.37-3.32c1.55-4.19,2.44-8.62,3.62-12.95C112.95,32.51,113.82,28.99,115.94,25.26z"/>
	<path d="M108.72,53.19c0.05,4.16-0.59,8.16-1.73,12.09c-0.24,0.84-0.92,0.86-1.54,0.63c-0.53-0.19-0.67-0.96-0.42-1.26
		c1.71-2.12,0.92-4.86,1.79-7.24C107.33,56.02,107.88,54.54,108.72,53.19z"/>
	<path d="M151.49,80.99c0.11,0.22,0.26,0.44,0.31,0.67c0.02,0.08-0.2,0.22-0.31,0.33c-0.11-0.22-0.26-0.44-0.31-0.67
		C151.16,81.24,151.38,81.11,151.49,80.99z"/>
</g>
</svg>
